<svg id="bd47f4ee-de70-45fd-a91d-1aaa2360a1b9" data-name="Layer 1" xmlns="http://www.w3.org/2000/svg" width="742.752" height="706.44"><path d="M971.376 235.768v-54.44a125.247 125.247 0 01-80.859-60.189l-.001.001a23.79 23.79 0 01-14.22 4.68h-43.229a178.55 178.55 0 00138.309 109.948z" transform="translate(-228.624 -96.78)" fill="#e6e6e6"/><path d="M971.376 178.208V125.91a29.121 29.121 0 00-29.13-29.13h-41.97v5.05a23.917 23.917 0 01-7.399 17.329 122.298 122.298 0 0078.499 59.049zM769.487 125.82h-27.031a23.987 23.987 0 01-23.98-23.99v-5.05h-39.38a29.128 29.128 0 00-29.13 29.13v648.2a29.08 29.08 0 0029.13 29.11h263.15a28.362 28.362 0 003.59-.22 29.146 29.146 0 0025.54-28.89V296.938c-95.71-11.09-175.458-79.38-201.889-171.118z" transform="translate(-228.624 -96.78)" fill="#e6e6e6"/><path d="M829.787 125.82h-57.14c26.3 90.039 104.68 157.028 198.729 168.068v-55.02A181.668 181.668 0 01829.787 125.82z" transform="translate(-228.624 -96.78)" fill="#e6e6e6"/><path d="M675.33 338.591a4.004 4.004 0 00-4 4v66.976a4.005 4.005 0 004 4h270a4.005 4.005 0 004-4V342.59a4.004 4.004 0 00-4-4z" transform="translate(-228.624 -96.78)" fill="#fff"/><circle cx="481.705" cy="279.299" r="21" fill="#3f3d56"/><path d="M758.83 362.08a3.5 3.5 0 000 7h165a3.5 3.5 0 000-7zm0 21a3.5 3.5 0 000 7h165a3.5 3.5 0 000-7z" transform="translate(-228.624 -96.78)" fill="#e6e6e6"/><path d="M675.33 453.591a4.004 4.004 0 00-4 4v66.976a4.005 4.005 0 004 4h270a4.005 4.005 0 004-4V457.59a4.004 4.004 0 00-4-4z" transform="translate(-228.624 -96.78)" fill="#fff"/><circle cx="481.705" cy="394.299" r="21" fill="#3f3d56"/><path d="M758.83 477.08a3.5 3.5 0 000 7h165a3.5 3.5 0 000-7zm0 21a3.5 3.5 0 000 7h165a3.5 3.5 0 000-7z" transform="translate(-228.624 -96.78)" fill="#e6e6e6"/><path d="M675.33 568.591a4.004 4.004 0 00-4 4v66.976a4.005 4.005 0 004 4h270a4.005 4.005 0 004-4V572.59a4.004 4.004 0 00-4-4z" transform="translate(-228.624 -96.78)" fill="#fff"/><circle cx="481.705" cy="509.299" r="21" fill="#3f3d56"/><path d="M758.83 592.08a3.5 3.5 0 000 7h165a3.5 3.5 0 000-7zm0 21a3.5 3.5 0 000 7h165a3.5 3.5 0 000-7z" transform="translate(-228.624 -96.78)" fill="#e6e6e6"/><circle cx="581.705" cy="632.299" r="50" fill="#32bfbd"/><path fill="#fff" d="M611.705 632.299h-27v-27h-6v27h-27v6h27v27h6v-27h27v-6z"/><path d="M336.822 744.976l1.598 11.762s40.653 13.896 32.71 20.26-72.177 6.665-73.515 3.041-1.635-19.297 1.988-20.634 10.322-14.791 10.322-14.791z" transform="translate(-228.624 -96.78)" fill="#2f2e41"/><path fill="#2f2e41" d="M149.217 406.744l-25.491 158.41-11.835 93.771-38.237-1.821 12.745-155.678 32.775-88.309 30.043-6.373z"/><path d="M405.153 503.524l3.642 14.567s13.656 38.236 1.82 36.416-17.297-34.595-17.297-34.595l-1.821-11.836z" transform="translate(-228.624 -96.78)" fill="#ffb6b6"/><path d="M286.801 498.062l28.223 124.725 34.595 146.574 32.774-11.835-23.67-118.352s3.641-25.491 0-38.237-3.642-68.28-3.642-68.28l27.312-23.67v-45.495l-71.921-6.398z" transform="translate(-228.624 -96.78)" fill="#2f2e41"/><path d="M382.473 754.608l1.76 11.739s40.839 13.338 32.983 19.81-72.079 7.652-73.466 4.047-1.9-19.272 1.706-20.66 10.118-14.93 10.118-14.93z" transform="translate(-228.624 -96.78)" fill="#2f2e41"/><circle cx="168.79" cy="195.077" r="27.312" fill="#ffb6b6"/><path fill="#ffb6b6" d="M150.583 191.435l-30.954 16.387 11.835 38.237h12.746l7.283-9.104-2.731-5.462 21.849-16.388-20.028-23.67z"/><path fill="#32bfbd" d="M140.568 242.417l-.455-15.021-12.434-23.836-46.742 19.284 16.387 148.395 56.445 3.641-1.821-62.817 9.104-68.28-3.186-19.574-17.298 18.208z"/><path d="M372.834 412.03L350.91 302.564s-49.999 10.23-54.55 17.514-10.925 154.768-10.925 154.768-9.104 29.133 0 29.133 45.52-26.402 47.34-16.388 3.642 15.477 16.387 12.746 20.94-24.58 20.94-24.58-2.732 43.698 2.73 43.698 13.657 2.732 13.657-1.82v-97.413l21.85-79.205-21.62-19.857-9.334 7.112z" transform="translate(-228.624 -96.78)" fill="#2f2e41"/><path d="M402.422 343.294l6.373-1.82s1.82 12.745 1.82 15.476-5.462 56.445-5.462 56.445l4.552 91.95-20.94 9.104-6.372-103.785zm-32.319-48.706s-10.925-30.954 13.656-38.237 35.505.91 39.147 5.463c3.815 4.768 21.85 28.222 10.925 33.684s-15.932-1.365-15.932-4.097-16.388 0-23.67 2.732a10.907 10.907 0 01-11.818-2.276s-1.839-8.65-7.301-4.097-5.007 6.828-5.007 6.828z" transform="translate(-228.624 -96.78)" fill="#2f2e41"/><path d="M453.046 526.496a4.004 4.004 0 00-5.382-1.741l-59.64 30.476a4.005 4.005 0 00-1.742 5.382l122.86 240.428a4.005 4.005 0 005.383 1.741l59.64-30.476a4.004 4.004 0 001.742-5.382z" transform="translate(-228.624 -96.78)" fill="#e6e6e6"/><circle cx="206.967" cy="477.941" r="21" fill="#32bfbd"/><path d="M470.127 611.539a3.5 3.5 0 00-6.233 3.185l75.08 146.928a3.5 3.5 0 106.234-3.186zm-18.7 9.555a3.5 3.5 0 10-6.233 3.186l75.081 146.928a3.5 3.5 0 006.233-3.186z" transform="translate(-228.624 -96.78)" fill="#fff"/><path opacity=".2" d="M85.865 532.834l26 119 2.214-10.25-28.214-108.75z"/><path d="M345.04 522.004a4.004 4.004 0 00-3.324-4.577l-66.148-10.497a4.005 4.005 0 00-4.578 3.323l-42.316 266.664a4.005 4.005 0 003.324 4.577l66.148 10.497a4.004 4.004 0 004.577-3.323z" transform="translate(-228.624 -96.78)" fill="#e6e6e6"/><circle cx="73.905" cy="453.916" r="21" fill="#32bfbd"/><path d="M308.755 600.791a3.5 3.5 0 10-6.913-1.097l-25.86 162.961a3.5 3.5 0 006.913 1.097zm-20.74-3.291a3.5 3.5 0 10-6.914-1.097l-25.86 162.96a3.5 3.5 0 106.914 1.098z" transform="translate(-228.624 -96.78)" fill="#fff"/><path d="M316.153 480.524l3.642 14.567s13.656 38.236 1.82 36.416-17.297-34.595-17.297-34.595l-1.821-11.836z" transform="translate(-228.624 -96.78)" fill="#ffb6b6"/><path fill="#2f2e41" d="M80.937 224.776l-12.746-1.022-37.326 106.517 42.789 73.742 30.043-22.76-31.864-51.893 24.581-66.459-15.477-38.125z"/></svg>