<svg id="060e19aa-3f7d-4f07-aa7e-820f8d371f55" data-name="Layer 1" xmlns="http://www.w3.org/2000/svg" xmlns:xlink="http://www.w3.org/1999/xlink" width="870.71" height="691.21"><defs><linearGradient id="96d5bb21-1965-4d3e-ab37-1bcc7be514e6" x1="309.27" y1="560.72" x2="309.27" y2="406.06" gradientTransform="matrix(-1 0 0 1 616.6 82.28)" gradientUnits="userSpaceOnUse"><stop offset="0" stop-color="gray" stop-opacity=".25"/><stop offset=".54" stop-color="gray" stop-opacity=".12"/><stop offset="1" stop-color="gray" stop-opacity=".1"/></linearGradient><linearGradient id="3608cfbe-4e57-42c8-8a3e-2b99e6b6c6a0" x1="-175.29" y1="157.73" x2="-175.29" y2="3.07" gradientTransform="matrix(0 -1 -1 0 970.73 29.07)" xlink:href="#96d5bb21-1965-4d3e-ab37-1bcc7be514e6"/><linearGradient id="f4d6b150-3892-4d6f-bed9-22612cc59583" x1="-246.29" y1="456.25" x2="-246.29" y2="301.59" gradientTransform="matrix(0 -1 -1 0 1293.26 304.09)" xlink:href="#96d5bb21-1965-4d3e-ab37-1bcc7be514e6"/><linearGradient id="675c2575-69c8-4c08-9859-0530d9a94ad2" x1="60" y1="226.17" x2="60" y2="71.51" gradientTransform="matrix(-1 0 0 1 436.24 71.59)" xlink:href="#96d5bb21-1965-4d3e-ab37-1bcc7be514e6"/><linearGradient id="245258be-8ef2-4163-b815-3fbd211fc334" x1="435.66" y1="691.21" x2="435.66" y2="9.21" xlink:href="#96d5bb21-1965-4d3e-ab37-1bcc7be514e6"/><linearGradient id="afb36fd3-f298-4117-ba9e-9f0c6a4eccfc" x1="435.66" y1="544.71" x2="435.66" y2="69.59" xlink:href="#96d5bb21-1965-4d3e-ab37-1bcc7be514e6"/><linearGradient id="9b46ec67-d0ea-45ff-80f1-fe3db7b86030" x1="600.3" y1="786.69" x2="600.3" y2="565.96" xlink:href="#96d5bb21-1965-4d3e-ab37-1bcc7be514e6"/></defs><path transform="rotate(-16.6 -132.68 1077.924)" fill="url(#96d5bb21-1965-4d3e-ab37-1bcc7be514e6)" d="M181.5 488.34h251.66V643H181.5z"/><path transform="rotate(-16.6 -134.19 1077.003)" fill="#fff" d="M184.26 492.57h243.13v144.34H184.26z"/><g opacity=".6" fill="#f55f44"><path transform="rotate(163.4 125.335 480.185)" d="M184.56 532.96h30.93v22.89h-30.93z"/><path transform="rotate(163.4 206.673 510.48)" d="M221.97 570.99h118.78v7.42H221.97z"/><path transform="rotate(163.4 227.038 522.479)" d="M258.42 584.23h86.61v4.95h-86.61z"/></g><path transform="rotate(-78.98 744.658 252.053)" fill="url(#3608cfbe-4e57-42c8-8a3e-2b99e6b6c6a0)" d="M812.99 78.53h154.66v251.66H812.99z"/><path transform="rotate(-78.98 743.759 250.548)" fill="#fff" d="M817.25 81.28h144.34v243.13H817.25z"/><g opacity=".6" fill="#f55f44"><path transform="rotate(-168.98 717.753 91.504)" d="M789.65 124.32h30.93v22.89h-30.93z"/><path transform="rotate(-168.98 775.773 156.064)" d="M803.74 196.61h118.78v7.42H803.74z"/><path transform="rotate(-168.98 788.252 176.141)" d="M832.3 217.92h86.61v4.95H832.3z"/></g><path transform="rotate(-23.45 580.445 894.79)" fill="url(#f4d6b150-3892-4d6f-bed9-22612cc59583)" d="M837.01 424.55h154.66v251.66H837.01z"/><path transform="rotate(-23.45 581.175 893.207)" fill="#fff" d="M842.9 427.21h144.34v243.13H842.9z"/><g opacity=".6" fill="#47e6b1"><path transform="rotate(-113.45 806.072 443.137)" d="M907.2 429.86h30.93v22.89H907.2z"/><path transform="rotate(-113.45 785.685 527.506)" d="M842.89 521.96h118.78v7.42H842.89z"/><path transform="rotate(-113.45 776.192 549.152)" d="M849.48 544.85h86.61v4.95h-86.61z"/></g><path transform="rotate(-19.53 -9.391 646.573)" fill="url(#675c2575-69c8-4c08-9859-0530d9a94ad2)" d="M250.41 143.1h251.66v154.66H250.41z"/><path transform="rotate(-19.53 -10.923 645.741)" fill="#fff" d="M253.13 147.42h243.13v144.34H253.13z"/><g opacity=".6" fill="#00b0ff"><path transform="rotate(160.47 194.646 138.309)" d="M252.52 193.23h30.93v22.89h-30.93z"/><path transform="rotate(160.47 277.428 164.417)" d="M291.38 227.07h118.78v7.42H291.38z"/><path transform="rotate(160.47 298.376 175.363)" d="M328.41 239.26h86.61v4.95h-86.61z"/></g><path fill="url(#245258be-8ef2-4163-b815-3fbd211fc334)" d="M435.66 9.21l-293 275.83v406.17h585.99V285.04L435.66 9.21z"/><path fill="#fff" d="M725.68 682.3H145.63V284.38L435.66 14.16l290.02 270.22V682.3z"/><path fill="url(#afb36fd3-f298-4117-ba9e-9f0c6a4eccfc)" d="M233.73 69.59h403.85v475.12H233.73z"/><path fill="#fff" d="M238.83 73.55h393.65v471.16H238.83z"/><path fill="#f5f5f5" d="M145.63 284.38l290.03 198.96L145.63 682.3V284.38zm580.05 0L435.66 483.34 725.68 682.3V284.38z"/><path d="M310.28 786.69L588.92 569.9a18.39 18.39 0 0122.75 0l278.66 216.79z" transform="translate(-164.65 -104.4)" fill="url(#9b46ec67-d0ea-45ff-80f1-fe3db7b86030)"/><path d="M310.28 786.69l278.64-207.32a19.06 19.06 0 0122.75 0l278.66 207.32z" transform="translate(-164.65 -104.4)" fill="#fff"/><path fill="#47e6b1" d="M298.56 164.61h82.16v13.86h-82.16z"/><path fill="#f5f5f5" d="M298.56 201.24h274.19v13.86H298.56zm0 23.75h274.19v13.86H298.56zm0 23.76h274.19v13.86H298.56zm0 23.75h274.19v13.86H298.56zm0 23.76h124.72v13.86H298.56z"/><path fill="#00b0ff" d="M448.03 296.26h124.72v13.86H448.03z"/></svg>