<svg width="1440" height="900" fill="none" xmlns="http://www.w3.org/2000/svg"><path d="M0 57h1440v556L391.887 863.382C192.004 911.132 0 759.593 0 554.085V57z" fill="#F9F9F9"/><path d="M0 0h1440v556L391.887 806.382C192.004 854.132 0 702.593 0 497.085V0z" fill="url(#paint0_linear)"/><path fill-rule="evenodd" clip-rule="evenodd" d="M11.182 378.245c-31.26 133.636 26.345 263.339 129.271 334.473 49.332 1.668 99.574-12.396 142.714-43.491l168.735-121.625c103.495-74.599 126.919-218.972 52.32-322.467-74.599-103.494-218.972-126.918-322.467-52.319L34.387 279.039l-23.205 99.206z" fill="url(#paint1_linear)"/><path fill-rule="evenodd" clip-rule="evenodd" d="M1394.57 0c32.02 71.889 37.83 156.162 8.13 237.765l-34.84 95.74-158.97 87.932c-111.63 61.753-252.192 21.314-313.945-90.322-61.753-111.636-21.315-252.196 90.321-313.95L1016.3 0h378.27z" fill="url(#paint2_linear)"/><path fill-rule="evenodd" clip-rule="evenodd" d="M875.559 690.839l-180.646 43.154c-82.795-74.158-125.737-190.35-97.824-309.678l9.065-38.754 129.243-93.159c90.766-65.424 217.383-44.881 282.803 45.885 65.43 90.766 44.88 217.383-45.881 282.807l-96.76 69.745z" fill="url(#paint3_linear)"/><path fill-rule="evenodd" clip-rule="evenodd" d="M662.793 473.743c-97.361-64.445-156.059-180.609-140.596-304.317l103.44-77.364c73.397-54.894 175.269-38.361 227.538 36.927 52.269 75.289 35.142 180.823-38.255 235.717L693.363 455.62c-9.749 7.291-20 13.322-30.57 18.123z" fill="url(#paint4_linear)"/><defs><linearGradient id="paint0_linear" x1="157.5" y1="493.678" x2="1174.49" y2="549.848" gradientUnits="userSpaceOnUse"><stop stop-color="#0763CE"/><stop offset="1" stop-color="#26D9D9"/></linearGradient><linearGradient id="paint1_linear" x1="36.288" y1="536.539" x2="700.11" y2="236.344" gradientUnits="userSpaceOnUse"><stop offset=".011" stop-color="#0763CE" stop-opacity="0"/><stop offset="1" stop-color="#2BB7E3" stop-opacity=".52"/></linearGradient><linearGradient id="paint2_linear" x1="1203.5" y1="143.5" x2="866" y2="288.5" gradientUnits="userSpaceOnUse"><stop offset=".011" stop-color="#8EBBF0" stop-opacity="0"/><stop offset="1" stop-color="#35CFFF" stop-opacity=".72"/></linearGradient><linearGradient id="paint3_linear" x1="609.513" y1="604.155" x2="1185.36" y2="337.564" gradientUnits="userSpaceOnUse"><stop offset=".011" stop-color="#0763CE" stop-opacity="0"/><stop offset="1" stop-color="#2BB7E3" stop-opacity=".52"/></linearGradient><linearGradient id="paint4_linear" x1="526.542" y1="337.89" x2="986.274" y2="122.517" gradientUnits="userSpaceOnUse"><stop offset=".011" stop-color="#0763CE" stop-opacity="0"/><stop offset="1" stop-color="#2BB7E3" stop-opacity=".52"/></linearGradient></defs></svg>