<svg xmlns="http://www.w3.org/2000/svg" viewBox="0 0 120 120" width="180" height="180"><defs><style>.a{fill:#e5e5e5}</style></defs><path class="a" d="M82.4 72.7v-.09a14.9 14.9 0 017.95-8.76h.08L92.25 61a1.05 1.05 0 00-.25-1.42c-19.12-12.89-44.52-7.65-57.66 11.86a1.07 1.07 0 00.26 1.45l13.32 9.46a1 1 0 001.34-.26c7.57-10.9 21.83-13.84 32.67-6.76a1 1 0 001.33-.33l.52-.81L83 74a1 1 0 01-.6-1.3z"/><circle class="a" cx="68.77" cy="93.8" r="7" transform="rotate(-45 68.77 93.794)"/><path class="a" d="M102.7 48.36a.92.92 0 001.33-.28l9-14a1.09 1.09 0 00-.27-1.45 74.78 74.78 0 00-84.95-.37 3.28 3.28 0 01-.15 1.32 3.77 3.77 0 01-2 2.12 3.72 3.72 0 01-2.86.35h-.08a80.86 80.86 0 00-17 18.65A1.08 1.08 0 006 56.11l13.32 9.45a.93.93 0 001.34-.27C39.27 37.27 75.6 29.77 102.7 48.36zM27.36 30.78a3.54 3.54 0 00-2.1-1.9 3.74 3.74 0 00-2.88.36 3.72 3.72 0 00-2 2.11 3.46 3.46 0 00.29 2.82 3.51 3.51 0 002 1.84c1.66-1.32 3.34-2.59 5.07-3.76a4 4 0 00-.38-1.47zM23.3 17.52q3-4.71.74-9.06a7.76 7.76 0 00-5.35-4.23A11.14 11.14 0 0011 5.47q-4.37 2.21-5.66 5.75a9.2 9.2 0 00.47 7.29 1 1 0 001.19.16l3-1.5c.49-.25.75-.73.58-1.06a4.71 4.71 0 01-.2-3.61 5 5 0 012.55-2.68 5 5 0 013.56-.54 3.68 3.68 0 012.49 2 4.5 4.5 0 01.53 2.82 10.34 10.34 0 01-1.52 3.46 9.37 9.37 0 00-1.59 4.28A7.18 7.18 0 0017.49 26l.25.48a1 1 0 001.37.43L22 25.43a1 1 0 00.45-1.34l-.14-.27a4.6 4.6 0 01-.59-2.82 10.3 10.3 0 011.58-3.48z"/><path d="M25.67 35.69a3.77 3.77 0 002-2.12 3.28 3.28 0 00.15-1.32c-1.73 1.17-3.41 2.44-5.07 3.76h.08a3.72 3.72 0 002.84-.32zM88.53 104a6 6 0 00-4.65.09 6.32 6.32 0 00-2.78 8.06 6.82 6.82 0 008.29 2.85 5.63 5.63 0 002.93-3.48 5.74 5.74 0 00-.15-4.58 6.05 6.05 0 00-3.64-2.94zm24.94-32.47q-3.07-5.19-10.08-7.59-7.4-2.55-12.93-.12l-6.07 9.46-.61 1 5.42 1.82a1 1 0 001.27-.62v-.09a7.63 7.63 0 014-4.3 8 8 0 016 0 8.09 8.09 0 014.62 3.54 6 6 0 01.44 5.16 7.34 7.34 0 01-2.68 3.8 17.11 17.11 0 01-5.73 2.12 15.18 15.18 0 00-6.76 3 11.67 11.67 0 00-3.5 6L86.38 96a1 1 0 00.62 1.3l6.07 2.09a1 1 0 001.27-.62l.36-1a7.35 7.35 0 012.65-3.81 16.78 16.78 0 015.83-2.09Q112 90 114.55 82.5a12.54 12.54 0 00-1.08-10.97z" fill="#cdcdcd"/><path d="M90.38 63.85a14.9 14.9 0 00-7.95 8.76v.09A1 1 0 0083 74l.8.28.61-1 6.07-9.46z" fill="#b8b8b8"/></svg>